<svg xmlns="http://www.w3.org/2000/svg" width="1200" height="296" viewBox="0 0 1200 296" role="img" aria-labelledby="title"><title id="title">Interface to API to data, with observation, recovery and improvement</title><rect x=".5" y=".5" width="1199" height="295" rx="16" fill="#0d1117" stroke="#26303b"/><text x="34" y="42" fill="#a8b6c5" font-size="18" font-weight="500" font-family="'SFMono-Regular',Consolas,monospace" letter-spacing="1.8">HOW I THINK ABOUT SYSTEMS</text><rect x="34" y="74" width="340" height="130" rx="12" fill="#111923" stroke="#364453"/><text x="56" y="105" fill="#62dbc5" font-size="16" font-weight="500" font-family="'SFMono-Regular',Consolas,monospace" >01</text><text x="56" y="145" fill="#edf3f8" font-size="27" font-weight="600" font-family="'SFMono-Regular',Consolas,monospace" >INTERFACE</text><text x="56" y="181" fill="#a8b6c5" font-size="20" font-weight="400" font-family="-apple-system,BlinkMacSystemFont,'Segoe UI',Arial,sans-serif" >Intent &amp; interaction</text><rect x="430" y="74" width="340" height="130" rx="12" fill="#111923" stroke="#62dbc5"/><text x="452" y="105" fill="#62dbc5" font-size="16" font-weight="500" font-family="'SFMono-Regular',Consolas,monospace" >02</text><text x="452" y="145" fill="#edf3f8" font-size="27" font-weight="600" font-family="'SFMono-Regular',Consolas,monospace" >API</text><text x="452" y="181" fill="#a8b6c5" font-size="20" font-weight="400" font-family="-apple-system,BlinkMacSystemFont,'Segoe UI',Arial,sans-serif" >Rules &amp; contracts</text><rect x="826" y="74" width="340" height="130" rx="12" fill="#111923" stroke="#364453"/><text x="848" y="105" fill="#62dbc5" font-size="16" font-weight="500" font-family="'SFMono-Regular',Consolas,monospace" >03</text><text x="848" y="145" fill="#edf3f8" font-size="27" font-weight="600" font-family="'SFMono-Regular',Consolas,monospace" >DATA</text><text x="848" y="181" fill="#a8b6c5" font-size="20" font-weight="400" font-family="-apple-system,BlinkMacSystemFont,'Segoe UI',Arial,sans-serif" >State &amp; integrity</text><path d="M384 139h34m-8-6 8 6-8 6" fill="none" stroke="#62dbc5" stroke-width="2" stroke-linecap="round" stroke-linejoin="round"/><path d="M780 139h34m-8-6 8 6-8 6" fill="none" stroke="#62dbc5" stroke-width="2" stroke-linecap="round" stroke-linejoin="round"/><path d="M996 219v24H204v-24" fill="none" stroke="#435465" stroke-width="1.5" stroke-dasharray="5 6"/><rect x="408" y="229" width="384" height="28" fill="#0d1117"/><text x="600" y="250" fill="#a8b6c5" font-size="17" font-weight="400" font-family="'SFMono-Regular',Consolas,monospace" text-anchor="middle" letter-spacing="1.2">OBSERVE · RECOVER · IMPROVE</text></svg>
